<svg width="33" height="32" viewBox="0 0 33 32" fill="none" xmlns="http://www.w3.org/2000/svg">
<path d="M16.0411 10.8752C15.3663 10.8733 14.6979 11.0045 14.0741 11.2612C13.4504 11.5179 12.8837 11.8951 12.4066 12.3711C11.9295 12.8471 11.5515 13.4125 11.2943 14.0347C11.0371 14.6569 10.9058 15.3238 10.9079 15.9968C10.906 16.6696 11.0375 17.3362 11.2948 17.9581C11.5521 18.5801 11.9302 19.1452 12.4073 19.6209C12.8843 20.0965 13.451 20.4735 14.0746 20.7299C14.6982 20.9864 15.3666 21.1173 16.0411 21.1152C16.7155 21.1171 17.3837 20.986 18.0071 20.7294C18.6306 20.4729 19.197 20.0959 19.6739 19.6203C20.1508 19.1446 20.5287 18.5796 20.7859 17.9578C21.0431 17.3359 21.1746 16.6695 21.1727 15.9968C21.175 15.3238 21.0439 14.6571 20.7869 14.0348C20.5298 13.4126 20.152 12.8472 19.6751 12.3712C19.1981 11.8952 18.6315 11.518 18.0079 11.2612C17.3842 11.0045 16.7158 10.8733 16.0411 10.8752ZM16.0411 19.2752C15.169 19.2752 14.3325 18.9296 13.7158 18.3145C13.0991 17.6994 12.7527 16.8651 12.7527 15.9952C12.7527 15.1253 13.0991 14.291 13.7158 13.6759C14.3325 13.0608 15.169 12.7152 16.0411 12.7152C16.9133 12.7152 17.7497 13.0608 18.3664 13.6759C18.9831 14.291 19.3295 15.1253 19.3295 15.9952C19.3295 16.8651 18.9831 17.6994 18.3664 18.3145C17.7497 18.9296 16.9133 19.2752 16.0411 19.2752ZM24.0617 7.99999C23.5612 7.50079 22.6452 7.60319 22.0196 8.22719C21.394 8.85279 21.293 9.76159 21.7935 10.2624C22.2939 10.7632 23.2083 10.6624 23.8355 10.0368C24.4611 9.41279 24.5622 8.49919 24.0617 7.99999ZM8.24833 21.9664C7.62112 22.5904 7.52006 23.5008 8.02054 24C8.52103 24.4992 9.43537 24.4 10.0626 23.7744C10.6898 23.1488 10.7908 22.2368 10.2904 21.7376C9.78988 21.2384 8.87393 21.3408 8.24833 21.9664ZM8.02054 7.99999C7.52006 8.49919 7.62112 9.41279 8.24672 10.0368C8.87393 10.6624 9.78828 10.7616 10.2888 10.2624C10.7892 9.76319 10.6882 8.84959 10.061 8.22559C9.43698 7.60319 8.52103 7.50079 8.02054 7.99999ZM22.0196 23.7712C22.6452 24.3968 23.5596 24.4992 24.0617 24C24.5638 23.5008 24.4611 22.5872 23.8339 21.9616C23.2067 21.336 22.2939 21.2368 21.7919 21.736C21.2898 22.2352 21.394 23.1472 22.0196 23.7712ZM16.0411 7.99679C16.7485 7.99679 17.3244 7.28159 17.3244 6.39679C17.3228 5.51199 16.7485 4.79999 16.0411 4.79999C15.3321 4.79999 14.7562 5.51199 14.7562 6.39679C14.7562 7.28159 15.3305 7.99679 16.0411 7.99679ZM16.0411 27.2C16.7485 27.2 17.3244 26.4848 17.3244 25.6C17.3244 24.7152 16.7501 24.0032 16.0427 24.0032C15.3337 24.0032 14.7578 24.7152 14.7578 25.6C14.7562 26.4848 15.3305 27.2 16.0411 27.2ZM8.02054 16C8.02054 15.2944 7.29869 14.72 6.41162 14.72C5.52454 14.72 4.81232 15.2944 4.81232 16C4.81232 16.7072 5.52454 17.28 6.41162 17.28C7.29869 17.28 8.02054 16.7072 8.02054 16ZM27.2699 16C27.2699 15.2944 26.5513 14.72 25.6642 14.72C24.7771 14.72 24.0617 15.2944 24.0617 16C24.0617 16.7072 24.7771 17.28 25.6642 17.28C26.5513 17.28 27.2699 16.7072 27.2699 16Z" fill="white"/>
</svg>
